<svg width="28" height="28" viewBox="0 0 28 28" fill="none" xmlns="http://www.w3.org/2000/svg">
<path d="M14 2.33334C11.6926 2.33334 9.43692 3.01757 7.51835 4.29952C5.59977 5.58147 4.10443 7.40356 3.22141 9.53536C2.33838 11.6672 2.10734 14.0129 2.55751 16.2761C3.00767 18.5392 4.11881 20.618 5.75042 22.2496C7.38203 23.8812 9.46084 24.9923 11.7239 25.4425C13.9871 25.8927 16.3328 25.6616 18.4646 24.7786C20.5964 23.8956 22.4185 22.4002 23.7005 20.4817C24.9824 18.5631 25.6667 16.3075 25.6667 14C25.6631 10.9069 24.4328 7.94149 22.2457 5.75433C20.0585 3.56717 17.0931 2.33687 14 2.33334ZM14 23.3333C12.154 23.3333 10.3495 22.7859 8.81468 21.7604C7.27982 20.7348 6.08354 19.2772 5.37712 17.5717C4.67071 15.8663 4.48588 13.9896 4.846 12.1792C5.20613 10.3687 6.09505 8.70563 7.40034 7.40034C8.70563 6.09505 10.3687 5.20614 12.1792 4.84601C13.9896 4.48588 15.8663 4.67071 17.5717 5.37713C19.2772 6.08354 20.7348 7.27982 21.7604 8.81468C22.7859 10.3495 23.3333 12.154 23.3333 14C23.3305 16.4745 22.3463 18.8468 20.5965 20.5965C18.8468 22.3463 16.4745 23.3305 14 23.3333ZM14 7C13.8468 6.99996 13.6951 7.03011 13.5535 7.08873C13.4119 7.14734 13.2833 7.23328 13.175 7.34162C13.0666 7.44997 12.9807 7.57859 12.9221 7.72016C12.8634 7.86172 12.8333 8.01345 12.8333 8.16667V13.7072L11.2212 16.7144C11.0751 16.9873 11.0434 17.307 11.133 17.6033C11.2226 17.8995 11.4263 18.148 11.6991 18.2941C11.972 18.4402 12.2917 18.4719 12.588 18.3823C12.8842 18.2927 13.1327 18.089 13.2788 17.8162L15.0288 14.5509C15.1192 14.3813 15.1665 14.1921 15.1667 14V8.16667C15.1667 8.01345 15.1366 7.86172 15.0779 7.72016C15.0193 7.57859 14.9334 7.44997 14.825 7.34162C14.7167 7.23328 14.5881 7.14734 14.4465 7.08873C14.3049 7.03011 14.1532 6.99996 14 7Z" fill="#C214DE"/>
</svg>
