<svg width="32" height="32" viewBox="0 0 32 32" fill="none" xmlns="http://www.w3.org/2000/svg">
<g clip-path="url(#clip0_13_50)">
<path d="M25.8067 13.38C24.9 8.79334 20.8533 5.33334 16 5.33334C14.0333 5.33334 12.2 5.91334 10.6533 6.89334L12.6 8.84001C13.6497 8.29175 14.8157 8.00366 16 8.00001C20.0533 8.00001 23.3333 11.28 23.3333 15.3333V16H25.3333C27.54 16 29.3333 17.7933 29.3333 20C29.3333 21.5133 28.4867 22.8133 27.2467 23.4933L29.18 25.4267C30.88 24.22 32 22.2467 32 20C32 16.48 29.26 13.6267 25.8067 13.38ZM4 7.03334L7.66667 10.6867C3.41333 10.8667 0 14.3667 0 18.6667C0 23.0867 3.58 26.6667 8 26.6667H23.6333L26.3 29.3333L28 27.64L5.7 5.33334L4 7.03334ZM10.3 13.3333L20.9667 24H8C5.05333 24 2.66667 21.6133 2.66667 18.6667C2.66667 15.72 5.05333 13.3333 8 13.3333H10.3Z" fill="white"/>
</g>
<defs>
<clipPath id="clip0_13_50">
<rect width="32" height="32" fill="white"/>
</clipPath>
</defs>
</svg>
