<svg width="27" height="27" viewBox="0 0 27 27" fill="none" xmlns="http://www.w3.org/2000/svg">
<path d="M26.6946 24.5177L14.9875 2.58019C14.8439 2.31061 14.6297 2.08515 14.3678 1.92791C14.106 1.77067 13.8063 1.68757 13.5009 1.6875H13.4992C12.8766 1.6875 12.3062 2.03006 12.0126 2.5785L0.253155 24.516C0.115598 24.7731 0.0468822 25.0615 0.0536826 25.353C0.060483 25.6446 0.142568 25.9294 0.291965 26.1799C0.442166 26.4298 0.654392 26.6366 0.908057 26.7803C1.16172 26.924 1.44822 26.9996 1.73975 27H25.2047C25.4962 27.0003 25.7829 26.9249 26.0367 26.7814C26.2905 26.6379 26.5028 26.431 26.6529 26.181C26.8029 25.931 26.8857 25.6464 26.893 25.3548C26.9003 25.0633 26.832 24.7749 26.6946 24.5177ZM1.73975 25.3125L13.4992 3.375L25.2063 25.3125H1.73975ZM11.8118 11.8395V16.902C11.8118 17.3496 11.9896 17.7788 12.306 18.0952C12.6225 18.4117 13.0517 18.5895 13.4992 18.5895C13.9467 18.5895 14.3759 18.4117 14.6924 18.0952C15.0088 17.7788 15.1866 17.3496 15.1866 16.902V11.8395C15.1866 11.3919 15.0088 10.9627 14.6924 10.6463C14.3759 10.3298 13.9467 10.152 13.4992 10.152C13.0517 10.152 12.6225 10.3298 12.306 10.6463C11.9896 10.9627 11.8118 11.3919 11.8118 11.8395ZM11.8118 21.9375C11.8118 22.1591 11.8555 22.3785 11.9403 22.5833C12.0251 22.788 12.1493 22.974 12.306 23.1307C12.4627 23.2874 12.6487 23.4117 12.8535 23.4965C13.0582 23.5814 13.2776 23.625 13.4992 23.625C13.9467 23.625 14.3759 23.4472 14.6924 23.1307C14.8491 22.974 14.9734 22.788 15.0582 22.5833C15.143 22.3785 15.1866 22.1591 15.1866 21.9375C15.1866 21.4899 15.0088 21.0607 14.6924 20.7443C14.3759 20.4278 13.9467 20.25 13.4992 20.25C13.0517 20.25 12.6225 20.4278 12.306 20.7443C11.9896 21.0607 11.8118 21.4899 11.8118 21.9375Z" fill="white"/>
</svg>
