<svg width="28" height="28" viewBox="0 0 28 28" fill="none" xmlns="http://www.w3.org/2000/svg">
<path d="M14 18.6667C13.7693 18.6667 13.5437 18.7351 13.3518 18.8633C13.16 18.9915 13.0104 19.1737 12.9221 19.3869C12.8338 19.6001 12.8107 19.8346 12.8557 20.0609C12.9008 20.2873 13.0119 20.4951 13.175 20.6583C13.3382 20.8215 13.5461 20.9326 13.7724 20.9776C13.9987 21.0226 14.2333 20.9995 14.4465 20.9112C14.6596 20.8229 14.8419 20.6734 14.97 20.4815C15.0982 20.2896 15.1667 20.0641 15.1667 19.8333C15.1667 19.5239 15.0437 19.2272 14.825 19.0084C14.6062 18.7896 14.3094 18.6667 14 18.6667ZM26.4483 20.3817L17.0567 4.04833C16.7531 3.5041 16.3097 3.05079 15.7724 2.73521C15.235 2.41964 14.6232 2.25327 14 2.25327C13.3768 2.25327 12.765 2.41964 12.2276 2.73521C11.6902 3.05079 11.2469 3.5041 10.9433 4.04833L1.61 20.3817C1.29593 20.9114 1.12716 21.5145 1.12075 22.1303C1.11434 22.7461 1.2705 23.3526 1.57346 23.8887C1.87643 24.4248 2.31549 24.8715 2.8463 25.1837C3.37711 25.4959 3.98088 25.6625 4.59666 25.6667H23.4033C24.0241 25.6728 24.6352 25.5137 25.1742 25.2057C25.7132 24.8978 26.1606 24.452 26.4705 23.9141C26.7804 23.3763 26.9416 22.7656 26.9378 22.1449C26.9339 21.5242 26.7649 20.9156 26.4483 20.3817ZM24.43 22.715C24.3277 22.8969 24.1785 23.0481 23.998 23.1528C23.8174 23.2574 23.612 23.3117 23.4033 23.31H4.59666C4.38796 23.3117 4.18261 23.2574 4.00204 23.1528C3.82146 23.0481 3.67226 22.8969 3.57 22.715C3.4676 22.5376 3.41369 22.3365 3.41369 22.1317C3.41369 21.9269 3.4676 21.7257 3.57 21.5483L12.9033 5.215C13.0012 5.0239 13.15 4.86352 13.3332 4.75153C13.5164 4.63955 13.7269 4.58029 13.9417 4.58029C14.1564 4.58029 14.3669 4.63955 14.5501 4.75153C14.7333 4.86352 14.8821 5.0239 14.98 5.215L24.3717 21.5483C24.4874 21.7231 24.5539 21.9259 24.5642 22.1353C24.5745 22.3447 24.5281 22.553 24.43 22.7383V22.715ZM14 9.33333C13.6906 9.33333 13.3938 9.45625 13.175 9.67504C12.9562 9.89384 12.8333 10.1906 12.8333 10.5V15.1667C12.8333 15.4761 12.9562 15.7728 13.175 15.9916C13.3938 16.2104 13.6906 16.3333 14 16.3333C14.3094 16.3333 14.6062 16.2104 14.825 15.9916C15.0437 15.7728 15.1667 15.4761 15.1667 15.1667V10.5C15.1667 10.1906 15.0437 9.89384 14.825 9.67504C14.6062 9.45625 14.3094 9.33333 14 9.33333Z" fill="#C214DE"/>
</svg>
