<svg width="31" height="31" viewBox="0 0 31 31" fill="none" xmlns="http://www.w3.org/2000/svg">
<g clip-path="url(#clip0_1_11)">
<path fill-rule="evenodd" clip-rule="evenodd" d="M19.9021 3.76249C21.6946 2.50896 22.7359 1.70123 23.3953 1.50709C23.869 1.36807 24.2672 1.40283 24.6178 1.54664C25.0288 1.71561 25.4374 2.07513 25.7404 2.80377C26.3592 4.29459 26.4706 5.95079 26.0678 7.50512C27.1033 8.85333 27.6745 10.5287 27.6745 12.2616C27.6745 15.2145 26.9408 17.2326 25.8472 18.6347C24.5841 20.255 22.8079 21.0819 20.9307 21.5097C21.2163 22.2324 21.3428 23.0197 21.2894 23.8131V28.4161C21.2894 29.0573 20.7693 29.5786 20.1273 29.5786C19.4853 29.5786 18.9653 29.0573 18.9653 28.4161V23.7783C18.9653 23.7483 18.9664 23.7196 18.9687 23.6896C19.0314 22.8615 18.7493 22.043 18.1886 21.4462C17.8879 21.1262 17.7939 20.6636 17.9448 20.2502C18.0957 19.8379 18.4661 19.5455 18.9037 19.4952C20.7891 19.2783 22.7603 18.8133 24.0141 17.2062C24.8581 16.1229 25.3503 14.5434 25.3503 12.2616C25.3492 10.8822 24.8372 9.5544 23.9166 8.55613C23.6217 8.23615 23.53 7.78076 23.6774 7.3721C24.0791 6.26357 24.0803 5.04479 23.6867 3.93986C23.5846 3.99858 23.4743 4.06569 23.3768 4.1328C22.7557 4.55584 21.9268 5.19219 20.7891 5.97955C20.5046 6.17609 20.1471 6.23601 19.8139 6.14253C17.3585 5.45584 14.7697 5.45584 12.3143 6.14253C11.9811 6.23601 11.6236 6.17609 11.3391 5.97955C9.90889 4.98966 8.87218 4.61336 8.28475 4.46955C8.05837 5.42708 8.11294 6.43854 8.45076 7.3721C8.5982 7.78076 8.50649 8.23615 8.21161 8.55613C7.28404 9.56159 6.77091 10.9026 6.77787 12.2976C6.77787 14.559 7.2701 16.1265 8.11294 17.2062C9.37022 18.8133 11.3484 19.2903 13.2396 19.5335C13.6726 19.5887 14.0383 19.8823 14.1857 20.2933C14.3343 20.7044 14.2391 21.1634 13.9408 21.481C13.387 22.0718 13.1049 22.8795 13.1606 23.6992C13.163 23.7256 13.163 23.7519 13.163 23.7783V24.8125L13.1641 24.8221L13.163 24.8317V28.4161C13.163 29.0573 12.6429 29.5786 12.0009 29.5786C11.3589 29.5786 10.8388 29.0573 10.8388 28.4161V26.2878C9.52462 26.4951 8.51462 26.3489 7.70313 26.0337C6.57819 25.5963 5.80502 24.8113 5.1549 23.9892C4.82172 23.5686 4.52684 23.142 4.20294 22.7944C4.01836 22.5955 3.83377 22.4157 3.58417 22.351C2.96308 22.1904 2.5881 21.5565 2.74831 20.9357C2.90967 20.3137 3.54354 19.9398 4.16463 20.1004C5.1015 20.3413 5.80618 21.0292 6.47603 21.8944C7.04373 22.629 7.58239 23.5542 8.67482 23.9125C9.23787 24.0983 9.93559 24.1187 10.8388 23.9257V23.8083C10.7923 23.0221 10.9212 22.2443 11.2056 21.5301C9.3261 21.0867 7.54524 20.2538 6.28216 18.6383C5.18741 17.2386 4.4537 15.2325 4.4537 12.3035C4.44442 10.5563 5.01675 8.86412 6.06042 7.50512C5.65758 5.95079 5.76903 4.29459 6.3878 2.80377C6.52131 2.48379 6.78948 2.23932 7.12151 2.13745C7.12151 2.13745 8.71081 1.48312 12.2133 3.76609C14.7418 3.14891 17.3748 3.14771 19.9021 3.76249Z" fill="white"/>
</g>
<defs>
<clipPath id="clip0_1_11">
<rect width="31" height="31" fill="white"/>
</clipPath>
</defs>
</svg>
